<svg width="22" height="26" viewBox="0 0 22 26" fill="none" xmlns="http://www.w3.org/2000/svg">
<path d="M8.77415 0.168255C9.21878 0.427511 9.55358 0.793194 9.69138 1.28682C9.70665 1.4498 9.70634 1.61199 9.70584 1.77557C9.70611 1.82434 9.70638 1.87312 9.70666 1.92337C9.70743 2.08655 9.70746 2.24972 9.7075 2.41291C9.7079 2.52999 9.70836 2.64707 9.70886 2.76415C9.70983 3.01613 9.71047 3.2681 9.71085 3.52007C9.71146 3.91823 9.71282 4.31639 9.71427 4.71455C9.71624 5.27248 9.71787 5.83042 9.71921 6.38836C9.71929 6.42374 9.71938 6.45913 9.71947 6.49558C9.71955 6.53101 9.71964 6.56644 9.71972 6.60295C9.72093 7.10562 9.72224 7.6083 9.72368 8.11097C9.72378 8.14636 9.72388 8.18175 9.72398 8.21821C9.72567 8.80784 9.72757 9.39748 9.72958 9.98711C9.73091 10.3832 9.73194 10.7793 9.73274 11.1754C9.73328 11.4213 9.73403 11.6673 9.73484 11.9132C9.73517 12.0276 9.7354 12.1419 9.73554 12.2563C9.73575 12.4119 9.73627 12.5676 9.73687 12.7232C9.73684 12.7917 9.73684 12.7917 9.73681 12.8616C9.73776 13.0372 9.74102 13.1815 9.79775 13.3493C9.92525 13.385 9.92525 13.385 10.0637 13.4018C10.1991 13.2682 10.1831 13.1822 10.1849 13.0001C10.1848 12.9586 10.1846 12.9172 10.1845 12.8745C10.1848 12.8308 10.185 12.7871 10.1853 12.7421C10.1859 12.647 10.1862 12.5519 10.1863 12.4568C10.1865 12.306 10.1874 12.1551 10.1884 12.0043C10.1914 11.5753 10.193 11.1463 10.1943 10.7173C10.1952 10.455 10.1968 10.1927 10.1988 9.93044C10.1994 9.83075 10.1998 9.73106 10.1998 9.63136C10.1998 8.90179 10.2036 8.28565 10.7551 7.73764C11.2661 7.32841 11.7662 7.26855 12.4038 7.31808C12.8493 7.42183 13.214 7.73582 13.4609 8.10804C13.6559 8.42612 13.6959 8.72291 13.6947 9.08611C13.6951 9.15332 13.6951 9.15332 13.6955 9.22189C13.6961 9.31873 13.6964 9.41556 13.6965 9.5124C13.6967 9.66559 13.6976 9.81876 13.6987 9.97194C13.7016 10.4073 13.7032 10.8427 13.7045 11.278C13.7054 11.5447 13.707 11.8113 13.709 12.0779C13.7097 12.1795 13.71 12.2811 13.71 12.3827C13.71 12.5245 13.711 12.6662 13.7121 12.8079C13.7119 12.85 13.7117 12.8921 13.7114 12.9355C13.7131 13.1562 13.7131 13.1562 13.8075 13.351C13.8926 13.4128 13.8926 13.4128 14.006 13.3919C14.1158 13.3575 14.1158 13.3575 14.1589 13.2444C14.1643 13.1358 14.1661 13.027 14.1665 12.9183C14.1669 12.8496 14.1672 12.781 14.1676 12.7103C14.1677 12.6734 14.1678 12.6366 14.1679 12.5986C14.1683 12.483 14.1691 12.3674 14.1701 12.2519C14.1729 11.9231 14.1754 11.5944 14.1763 11.2657C14.1768 11.0646 14.1784 10.8635 14.1806 10.6624C14.1812 10.5861 14.1815 10.5098 14.1814 10.4336C14.1806 9.79531 14.2737 9.31259 14.7286 8.83798C15.1924 8.44226 15.6944 8.383 16.2863 8.41944C16.7172 8.49079 17.0774 8.72872 17.3409 9.06968C17.6528 9.5549 17.6848 9.99604 17.687 10.5604C17.6874 10.6728 17.6885 10.7852 17.6898 10.8977C17.6928 11.1764 17.6947 11.4551 17.6966 11.7339C17.6982 11.9705 17.7003 12.207 17.703 12.4436C17.704 12.5544 17.7045 12.6652 17.7049 12.776C17.7056 12.8429 17.7063 12.9098 17.7071 12.9787C17.7077 13.0673 17.7077 13.0673 17.7082 13.1577C17.7081 13.305 17.7081 13.305 17.8287 13.4018C17.9671 13.385 17.9671 13.385 18.0946 13.3493C18.1444 13.2022 18.1542 13.1146 18.1537 12.9627C18.1537 12.9164 18.1537 12.8701 18.1538 12.8225C18.1536 12.7475 18.1536 12.7475 18.1534 12.671C18.1541 12.5645 18.1549 12.4579 18.1558 12.3513C18.157 12.1839 18.1578 12.0165 18.1571 11.8491C18.1533 10.5521 18.1533 10.5521 18.6253 10.0348C18.9608 9.70994 19.4131 9.51674 19.883 9.50769C20.4057 9.51601 20.8073 9.68112 21.1794 10.0453C21.5011 10.4359 21.621 10.7904 21.6191 11.2882C21.6193 11.3335 21.6196 11.3788 21.6198 11.4255C21.6205 11.5769 21.6204 11.7284 21.6203 11.8798C21.6206 11.9885 21.621 12.0973 21.6214 12.206C21.6223 12.5013 21.6226 12.7966 21.6226 13.0919C21.6227 13.2767 21.6229 13.4615 21.6232 13.6462C21.6242 14.2916 21.6246 14.937 21.6246 15.5823C21.6245 16.1825 21.6256 16.7826 21.6273 17.3828C21.6287 17.899 21.6293 18.4152 21.6292 18.9314C21.6292 19.2392 21.6295 19.5471 21.6306 19.855C21.6316 20.145 21.6316 20.4351 21.6309 20.7251C21.6308 20.831 21.631 20.9369 21.6316 21.0427C21.6361 21.8254 21.5791 22.5742 21.1927 23.278C21.1743 23.3125 21.156 23.3471 21.1371 23.3827C20.561 24.4407 19.6368 25.2569 18.4669 25.6216C17.9352 25.7749 17.429 25.8019 16.8806 25.8002C16.7928 25.8005 16.705 25.8008 16.6172 25.8012C16.3807 25.8022 16.1442 25.8021 15.9077 25.8018C15.7093 25.8017 15.511 25.802 15.3126 25.8023C14.8441 25.803 14.3757 25.803 13.9072 25.8024C13.426 25.8018 12.9448 25.8025 12.4637 25.8039C12.0486 25.8051 11.6335 25.8054 11.2185 25.8051C10.9714 25.8049 10.7244 25.805 10.4773 25.806C10.2448 25.8068 10.0122 25.8065 9.77968 25.8056C9.69504 25.8054 9.61041 25.8055 9.52577 25.8061C8.79859 25.8105 8.08655 25.7174 7.43766 25.3692C7.40263 25.3512 7.3676 25.3331 7.33151 25.3146C7.03745 25.1599 6.76349 24.9843 6.50027 24.7825C6.46853 24.7598 6.43679 24.7371 6.40408 24.7137C5.96623 24.3786 5.64784 23.8856 5.36967 23.4193C5.33907 23.3685 5.33907 23.3685 5.30784 23.3167C5.24421 23.211 5.18083 23.1052 5.11746 22.9993C5.07794 22.9336 5.03841 22.8679 4.99886 22.8022C4.91984 22.6709 4.84091 22.5395 4.76204 22.4081C4.39231 21.7922 4.01991 21.178 3.64157 20.5672C3.32134 20.0501 3.01107 19.5279 2.70598 19.002C2.44558 18.5546 2.1758 18.1134 1.90299 17.6733C1.56503 17.128 1.23537 16.5782 0.909626 16.0256C0.69823 15.6673 0.69823 15.6673 0.479574 15.3133C0.450635 15.2675 0.450635 15.2675 0.421112 15.2208C0.367609 15.1366 0.313747 15.0525 0.259861 14.9685C-0.0123613 14.5056 -0.0627303 14.0155 0.0715186 13.5001C0.245478 12.9911 0.610625 12.663 1.08765 12.4242C1.30327 12.3365 1.50252 12.3276 1.73355 12.3299C1.77099 12.3289 1.80842 12.3278 1.84699 12.3267C2.34094 12.3272 2.73715 12.5906 3.14629 12.838C3.19133 12.8649 3.23638 12.8919 3.28279 12.9196C3.43364 13.0101 3.58417 13.101 3.73465 13.192C3.78942 13.2251 3.8442 13.2582 3.90064 13.2923C4.50125 13.6552 5.10035 14.0206 5.69929 14.3863C5.75087 14.4178 5.80245 14.4493 5.8556 14.4817C5.98185 14.5588 6.1081 14.6358 6.23435 14.7129C6.23443 14.6442 6.2345 14.5754 6.23458 14.5046C6.23648 12.8716 6.23948 11.2387 6.24381 9.60581C6.24434 9.40474 6.24487 9.20367 6.24538 9.0026C6.24554 8.94256 6.24554 8.94256 6.2457 8.8813C6.24735 8.23352 6.24825 7.58574 6.24888 6.93796C6.24954 6.27307 6.251 5.60818 6.25321 4.9433C6.25454 4.53316 6.25526 4.12303 6.25517 3.7129C6.25516 3.39818 6.25628 3.08348 6.25781 2.76877C6.25826 2.63982 6.25836 2.51088 6.25806 2.38194C6.2577 2.2057 6.25866 2.02952 6.25993 1.85329C6.25952 1.80243 6.25911 1.75156 6.25868 1.69915C6.26492 1.21013 6.43395 0.845441 6.77015 0.489075C7.31531 -0.0103446 8.09194 -0.14546 8.77415 0.168255Z" fill="white"/>
</svg>
