<svg width="40" height="40" viewBox="0 0 40 40" fill="none" xmlns="http://www.w3.org/2000/svg">
<g clip-path="url(#clip0_1380_1701)">
<path d="M19.555 4.60428C19.7277 4.73618 19.881 4.8355 20.0789 4.92197C20.1105 4.89155 20.142 4.86114 20.1745 4.82981C22.4269 2.75427 25.5946 1.83845 28.6062 1.94166C31.8185 2.10835 34.8276 3.53334 36.9903 5.91532C37.167 6.12678 37.335 6.3425 37.5008 6.56259C37.5633 6.64336 37.6257 6.72413 37.69 6.80734C39.6526 9.4022 40.3401 12.6879 39.9502 15.8897C39.6437 17.8889 38.8358 19.8214 37.5789 21.4063C37.5365 21.4622 37.4941 21.518 37.4503 21.5756C36.8876 22.2938 36.241 22.9324 35.5973 23.5775C35.3961 23.7796 35.1964 23.9832 34.9967 24.1868C34.8672 24.317 34.7377 24.4471 34.6081 24.5771C34.5494 24.6373 34.4907 24.6976 34.4302 24.7596C33.973 25.213 33.3705 25.6844 32.6977 25.7108C32.6279 25.7099 32.5581 25.709 32.4862 25.7081C32.4158 25.7074 32.3454 25.7067 32.2729 25.706C32.1923 25.7046 32.1923 25.7046 32.1102 25.7032C32.1166 25.8015 32.1231 25.8998 32.1297 26.0011C32.1228 26.8852 31.6994 27.4442 31.0946 28.047C31.0466 28.0995 30.9987 28.1521 30.9493 28.2063C30.5085 28.6814 30.0091 28.9244 29.3758 29.0626C29.1936 29.0684 29.0111 29.07 28.8289 29.0626C28.8338 29.1367 28.8386 29.2108 28.8436 29.2872C28.8418 30.183 28.3491 30.8204 27.7688 31.453C27.2428 31.9731 26.612 32.355 25.8602 32.3585C25.756 32.3548 25.6518 32.3503 25.5477 32.3438C25.5457 32.3977 25.5437 32.4516 25.5416 32.5071C25.4701 33.6912 24.8323 34.4101 24.0261 35.2253C23.9631 35.2892 23.9001 35.3531 23.8352 35.4189C23.7023 35.5532 23.5693 35.6873 23.4361 35.8211C23.2344 36.0244 23.0344 36.2292 22.8344 36.4341C22.7044 36.5651 22.5743 36.6961 22.4441 36.8269C22.3854 36.8874 22.3268 36.948 22.2664 37.0104C21.646 37.6258 20.9135 38.0489 20.0252 38.0665C19.0915 38.0526 18.4139 37.6339 17.7547 37.002C17.127 36.3502 16.8533 35.7688 16.8703 34.8591C16.8721 34.8025 16.874 34.7459 16.8758 34.6876C16.8219 34.6912 16.7681 34.6948 16.7126 34.6986C15.7958 34.7338 15.2123 34.3693 14.5415 33.7766C13.9034 33.1716 13.547 32.4757 13.5018 31.587C13.5066 31.5274 13.5115 31.4678 13.5164 31.4063C13.431 31.4128 13.3456 31.4192 13.2577 31.4259C12.3634 31.4196 11.7096 30.9142 11.0943 30.3169C10.4943 29.6767 10.2181 28.9986 10.2352 28.1251C10.1813 28.1231 10.1274 28.1211 10.0719 28.119C8.6331 28.0321 7.84814 27.0013 6.8862 26.042C6.83086 25.9868 6.77552 25.9317 6.71851 25.8749C6.42562 25.5832 6.13295 25.2913 5.84047 24.9991C5.54089 24.7 5.24059 24.4016 4.9401 24.1033C4.70685 23.8715 4.47413 23.6392 4.24155 23.4067C4.13118 23.2966 4.02063 23.1867 3.90986 23.0769C1.47229 20.6605 -0.00878595 17.6862 -0.0331815 14.219C-0.0341638 13.2394 -0.002467 12.2826 0.235197 11.3282C0.248188 11.272 0.261179 11.2158 0.274564 11.1579C0.990336 8.09337 2.96981 5.41504 5.61476 3.73606C9.95448 1.05438 15.5906 1.41782 19.555 4.60428ZM4.12192 6.82627C2.01463 9.24344 1.25523 12.0693 1.40707 15.2345C1.69267 18.252 3.40568 20.5462 5.48882 22.6178C5.67246 22.8006 5.85524 22.9843 6.03796 23.168C6.15454 23.2844 6.27117 23.4009 6.38785 23.5172C6.44245 23.5722 6.49705 23.6271 6.5533 23.6837C6.60369 23.7336 6.65409 23.7835 6.70601 23.8349C6.75026 23.879 6.79451 23.9231 6.8401 23.9686C6.94942 24.0792 6.94942 24.0792 7.1102 24.0626C7.1299 24.0149 7.1496 23.9672 7.1699 23.9181C7.4292 23.3433 7.77805 22.9592 8.23324 22.5294C8.36262 22.4049 8.49181 22.2802 8.62082 22.1552C8.68297 22.0951 8.74512 22.035 8.80915 21.9731C9.01892 21.7632 9.21281 21.5431 9.40569 21.3178C10.1564 20.4516 10.9969 19.5518 12.1938 19.4285C13.0851 19.3958 13.7507 19.633 14.4262 20.214C15.1842 20.9419 15.557 21.6852 15.6258 22.7345C15.7222 22.7446 15.7222 22.7446 15.8205 22.7549C16.8453 22.8839 17.5471 23.2539 18.2137 24.0382C18.6897 24.6525 18.8742 25.2444 18.9071 26.0157C19.0034 26.0258 19.0034 26.0258 19.1018 26.0362C20.3231 26.1899 21.0317 26.737 21.7821 27.6762C22.1095 28.1851 22.1363 28.7859 22.1883 29.3751C22.2413 29.3771 22.2943 29.3791 22.3488 29.3812C23.3483 29.4421 23.8991 29.7798 24.6102 30.4688C25.001 30.8185 25.2936 30.9768 25.8236 30.969C26.4393 30.8687 26.9141 30.3244 27.2664 29.8438C27.4427 29.5296 27.4591 29.264 27.4227 28.9063C27.1906 28.3214 26.8178 27.9468 26.3731 27.51C26.2977 27.4348 26.2224 27.3596 26.1471 27.2842C25.9438 27.0812 25.7395 26.8791 25.5351 26.6771C25.321 26.4653 25.1078 26.2525 24.8946 26.0398C24.491 25.6377 24.0867 25.2363 23.6821 24.8352C23.0875 24.2456 22.4938 23.6551 21.9003 23.0643C21.8568 23.021 21.8133 22.9777 21.7685 22.9331C21.6818 22.8468 21.5951 22.7605 21.5084 22.6742C21.2542 22.4212 20.9998 22.1686 20.7452 21.9161C20.5873 21.7595 20.4295 21.6028 20.2717 21.446C20.1633 21.3383 20.0547 21.2309 19.9461 21.1235C19.882 21.0597 19.8179 20.996 19.7519 20.9303C19.6959 20.8748 19.6399 20.8193 19.5823 20.7621C19.396 20.5632 19.377 20.4841 19.3563 20.2052C19.3758 19.922 19.3758 19.922 19.4637 19.7364C19.6671 19.5602 19.8121 19.542 20.0789 19.5313C20.393 19.6276 20.5767 19.7662 20.806 19.9984C20.8707 20.0634 20.9354 20.1283 21.0021 20.1953C21.107 20.3024 21.107 20.3024 21.214 20.4116C21.2892 20.4875 21.3644 20.5633 21.4397 20.6391C21.6015 20.8022 21.763 20.9656 21.9241 21.1293C22.1793 21.3884 22.4354 21.6465 22.6917 21.9044C23.3743 22.5916 24.0556 23.28 24.7363 23.9692C25.1835 24.422 25.6313 24.8743 26.0802 25.3255C26.3348 25.5815 26.5885 25.8384 26.8416 26.096C26.9996 26.2564 27.1584 26.416 27.3175 26.5754C27.4255 26.6842 27.5326 26.7939 27.6397 26.9037C28.0531 27.3159 28.4112 27.6392 29.0218 27.6643C29.7167 27.5013 30.2186 26.9757 30.6258 26.4063C30.752 26.0279 30.7671 25.6969 30.6132 25.3313C30.4512 25.0458 30.254 24.8319 30.0213 24.6046C29.9765 24.5598 29.9316 24.5151 29.8854 24.4689C29.7376 24.3217 29.5891 24.1754 29.4405 24.029C29.337 23.9262 29.2336 23.8232 29.1302 23.7202C28.8581 23.4495 28.5853 23.1794 28.3124 22.9095C27.8766 22.4783 27.4417 22.0461 27.0069 21.6139C26.8557 21.4638 26.7042 21.3139 26.5527 21.1642C26.1398 20.7552 25.733 20.3477 25.3563 19.9046C25.1298 19.6449 24.8828 19.4053 24.6377 19.1633C24.5831 19.1091 24.5286 19.0548 24.4724 18.999C24.3004 18.8279 24.1282 18.6571 23.9559 18.4864C23.7272 18.2598 23.4988 18.0329 23.2705 17.8059C23.2179 17.754 23.1653 17.702 23.1112 17.6486C23.0629 17.6005 23.0146 17.5525 22.9649 17.503C22.9223 17.4609 22.8797 17.4187 22.8358 17.3752C22.6862 17.2124 22.6573 17.1113 22.6278 16.8897C22.6571 16.6407 22.6571 16.6407 22.8231 16.4161C23.0477 16.2501 23.0477 16.2501 23.2772 16.2061C23.8681 16.3147 24.2729 16.8286 24.6783 17.2376C24.7439 17.3033 24.8096 17.3691 24.8772 17.4367C25.0158 17.5755 25.1541 17.7145 25.2923 17.8536C25.5024 18.0651 25.713 18.276 25.9238 18.4867C26.0588 18.6221 26.1937 18.7575 26.3286 18.8929C26.391 18.9554 26.4534 19.0178 26.5176 19.0821C26.7851 19.3519 27.0473 19.6227 27.2948 19.9111C27.6605 20.3352 28.0583 20.7282 28.4533 21.1247C28.4944 21.166 28.5356 21.2074 28.578 21.25C28.7951 21.4683 29.0125 21.6864 29.23 21.9043C29.4537 22.1284 29.6767 22.3533 29.8995 22.5784C30.0721 22.7524 30.2452 22.9259 30.4185 23.0993C30.501 23.182 30.5832 23.2649 30.6653 23.348C30.78 23.464 30.8955 23.5793 31.0111 23.6945C31.0764 23.7601 31.1418 23.8257 31.2091 23.8933C31.5142 24.1542 31.8201 24.3307 32.2274 24.3263C32.283 24.3269 32.3386 24.3275 32.3958 24.3281C32.8477 24.2513 33.1452 23.9958 33.4579 23.6769C33.5243 23.6101 33.5908 23.5433 33.6593 23.4745C33.9147 23.1837 34.0084 22.9801 34.0145 22.5929C34.0167 22.5295 34.0189 22.4662 34.0212 22.4009C33.9359 21.8955 33.5907 21.5243 33.2373 21.1751C33.1943 21.1316 33.1512 21.0881 33.1069 21.0433C32.9635 20.8989 32.8194 20.7553 32.6752 20.6117C32.5719 20.5079 32.4686 20.404 32.3653 20.3001C32.0855 20.0189 31.8049 19.7384 31.5242 19.4581C31.2898 19.224 31.0557 18.9895 30.8217 18.755C30.2698 18.202 29.7173 17.6496 29.1645 17.0976C28.5939 16.528 28.0244 15.9573 27.4553 15.3862C26.9665 14.8957 26.4772 14.4058 25.9873 13.9164C25.6948 13.6242 25.4025 13.3317 25.1108 13.0386C24.8367 12.7633 24.5619 12.4888 24.2865 12.2149C24.1855 12.1141 24.0847 12.0131 23.9842 11.9119C23.8472 11.7738 23.7093 11.6368 23.5711 11.5C23.5314 11.4595 23.4917 11.4191 23.4508 11.3774C23.2234 11.1546 23.0581 11.0314 22.7352 11.0157C22.3596 11.1765 22.0942 11.4821 21.8131 11.77C21.7612 11.8225 21.7093 11.875 21.6558 11.9291C21.5434 12.0429 21.4312 12.1568 21.3191 12.2709C21.1411 12.4521 20.9625 12.6326 20.7837 12.8129C20.2754 13.3257 19.7679 13.8392 19.2616 14.354C18.9515 14.6691 18.6404 14.9833 18.3287 15.297C18.2107 15.4161 18.093 15.5355 17.9758 15.6554C16.9934 16.6593 16.0336 17.5167 14.5526 17.5367C14.4846 17.5359 14.4166 17.5351 14.3465 17.5343C14.2389 17.5333 14.2389 17.5333 14.1291 17.5323C13.1479 17.508 12.2992 17.1742 11.57 16.5031C11.1624 16.0563 10.9405 15.5318 10.9383 14.922C11.0107 13.9359 11.6855 13.3713 12.3589 12.7076C12.4358 12.6312 12.5126 12.5548 12.5894 12.4783C12.7904 12.2784 12.9918 12.0789 13.1933 11.8795C13.5156 11.5607 13.8373 11.2413 14.1587 10.9216C14.27 10.8112 14.3815 10.701 14.493 10.5909C14.8376 10.2488 15.1686 9.90251 15.4847 9.53404C15.7744 9.20773 16.0877 8.90381 16.397 8.59628C16.4691 8.52434 16.5411 8.45239 16.6154 8.37827C16.8049 8.18904 16.9946 8.00005 17.1844 7.81112C17.3789 7.61746 17.5731 7.42357 17.7674 7.22971C18.1471 6.85087 18.527 6.47227 18.9071 6.09384C18.7629 5.77162 18.5572 5.61248 18.2723 5.41513C18.1995 5.36433 18.1995 5.36433 18.1253 5.3125C13.6786 2.26323 7.82155 2.89577 4.12192 6.82627ZM22.8914 4.68759C22.8072 4.73271 22.7229 4.77783 22.636 4.82431C21.3924 5.51398 20.382 6.55952 19.3847 7.55899C19.2978 7.64583 19.2109 7.73266 19.124 7.81948C18.9432 8.0001 18.7626 8.18087 18.5821 8.36174C18.3523 8.59199 18.1221 8.8219 17.8919 9.0517C17.7128 9.23045 17.534 9.40939 17.3552 9.58839C17.2705 9.67319 17.1856 9.75793 17.1008 9.84261C16.5608 10.38 16.5608 10.38 16.0497 10.9447C15.7157 11.3347 15.3449 11.6864 14.9767 12.0439C14.8216 12.1958 14.6669 12.348 14.5121 12.5002C14.2698 12.7383 14.0272 12.9758 13.7832 13.212C13.5843 13.4045 13.3868 13.5984 13.1902 13.7932C13.0793 13.9023 12.967 14.0099 12.8546 14.1176C12.4462 14.4915 12.4462 14.4915 12.2909 14.9966C12.3568 15.2886 12.4405 15.4188 12.6571 15.6251C12.8831 15.7677 12.8831 15.7677 13.1307 15.879C13.2529 15.9376 13.2529 15.9376 13.3776 15.9974C13.9139 16.2358 14.499 16.2628 15.0686 16.1131C15.7081 15.8652 16.1652 15.4994 16.6386 15.0144C16.6909 14.9616 16.7432 14.9087 16.7971 14.8542C16.91 14.7399 17.0228 14.6253 17.1354 14.5107C17.3141 14.329 17.4933 14.1479 17.6727 13.9669C18.1825 13.4525 18.6916 12.9374 19.1995 12.4211C19.5108 12.1049 19.8229 11.7895 20.1357 11.4748C20.2544 11.3551 20.3726 11.235 20.4905 11.1145C20.6558 10.9457 20.8222 10.7781 20.9889 10.6108C21.0368 10.5612 21.0847 10.5117 21.134 10.4607C21.5488 10.0486 21.9863 9.80408 22.5695 9.72421C22.6645 9.72502 22.7594 9.72583 22.8573 9.72666C22.9524 9.72585 23.0476 9.72504 23.1457 9.72421C23.7263 9.80655 24.138 10.1061 24.5411 10.5158C24.585 10.5591 24.6288 10.6024 24.674 10.6471C24.8195 10.7911 24.9638 10.9362 25.1081 11.0813C25.2127 11.1854 25.3174 11.2893 25.4221 11.3933C25.7054 11.6749 25.9878 11.9575 26.27 12.2403C26.5061 12.4769 26.7427 12.7129 26.9794 12.949C27.5381 13.5063 28.0959 14.0645 28.6533 14.6232C29.2269 15.1981 29.8018 15.7718 30.3774 16.3448C30.8726 16.8379 31.3671 17.3318 31.8609 17.8264C32.1554 18.1212 32.4501 18.4158 32.7456 18.7096C33.0237 18.9863 33.3008 19.2639 33.5772 19.5422C33.6783 19.6437 33.7797 19.7448 33.8815 19.8456C34.4688 20.4277 34.9409 20.9719 35.3133 21.7188C36.2052 21.0208 36.8033 20.1198 37.3446 19.1407C37.3937 19.0531 37.4429 18.9655 37.4935 18.8752C38.7788 16.4568 38.9681 13.5157 38.1746 10.9132C37.2996 8.2057 35.5013 5.91774 32.9688 4.58532C31.6367 3.91355 30.1763 3.41215 28.6727 3.35947C28.5723 3.35544 28.4719 3.35141 28.3684 3.34726C26.4291 3.29491 24.5856 3.74812 22.8914 4.68759ZM10.8944 21.7384C10.8384 21.7951 10.7825 21.8518 10.7249 21.9102C10.4608 22.1797 10.2049 22.4538 9.95871 22.7397C9.63448 23.1151 9.27844 23.456 8.92004 23.7985C8.50755 24.2018 8.34763 24.4731 8.33182 25.0657C8.40914 25.5255 8.68984 25.8322 9.00961 26.1524C9.06361 26.2088 9.06362 26.2088 9.11871 26.2663C9.40748 26.5546 9.67816 26.7054 10.0887 26.728C10.1612 26.7186 10.1612 26.7186 10.2352 26.7091C10.3077 26.7015 10.3077 26.7015 10.3817 26.6938C10.9225 26.5208 11.3139 26.0547 11.7034 25.6648C11.7681 25.6004 11.8327 25.5361 11.8994 25.4698C12.0356 25.3341 12.1715 25.1981 12.3073 25.062C12.5149 24.8542 12.7235 24.6474 12.9322 24.4407C13.0646 24.3084 13.197 24.1761 13.3294 24.0437C13.3916 23.9821 13.4539 23.9206 13.518 23.8572C13.906 23.466 14.1898 23.1544 14.2538 22.588C14.2277 22.0181 13.9161 21.5933 13.5103 21.2144C13.1829 20.9515 12.8782 20.8018 12.4618 20.7423C11.7729 20.8407 11.3573 21.2566 10.8944 21.7384ZM14.2644 24.9842C14.1965 25.052 14.1286 25.1197 14.0586 25.1895C13.9157 25.3324 13.7733 25.4759 13.6314 25.6198C13.4145 25.8393 13.1958 26.057 12.9767 26.2745C12.8378 26.414 12.699 26.5535 12.5603 26.6932C12.4951 26.758 12.43 26.8228 12.3628 26.8896C11.949 27.3118 11.6837 27.6368 11.6073 28.2374C11.6835 28.8578 12.021 29.3016 12.5008 29.6876C12.8374 29.9163 13.1731 30.0644 13.5862 30.0327C14.1763 29.9159 14.6359 29.3838 15.0411 28.9753C15.1323 28.8844 15.1323 28.8844 15.2253 28.7917C15.353 28.6643 15.4804 28.5365 15.6074 28.4084C15.8013 28.2133 15.9964 28.0195 16.1916 27.8257C16.316 27.7012 16.4403 27.5766 16.5645 27.4519C16.6225 27.3944 16.6804 27.3369 16.7401 27.2777C17.0982 26.9148 17.4393 26.5582 17.5423 26.0423C17.5365 25.5972 17.4912 25.3463 17.1883 25.0001C17.1331 24.9352 17.0779 24.8704 17.0211 24.8036C16.6577 24.4036 16.3694 24.1406 15.8303 24.0464C15.1273 24.102 14.7365 24.5046 14.2644 24.9842ZM17.5609 28.3436C17.4928 28.4113 17.4247 28.4791 17.3544 28.5489C17.2108 28.692 17.0675 28.8354 16.9244 28.9791C16.7058 29.1984 16.4858 29.4162 16.2656 29.6339C16.126 29.7734 15.9865 29.9129 15.8471 30.0526C15.7814 30.1174 15.7157 30.1822 15.6481 30.2489C15.2686 30.6329 14.9671 30.9587 14.9004 31.5135C14.9737 32.1938 15.3755 32.603 15.8828 33.0293C16.1576 33.2263 16.3699 33.3053 16.7098 33.3106C16.7741 33.3129 16.8383 33.3151 16.9045 33.3174C17.4762 33.2173 17.8957 32.6748 18.2857 32.2828C18.3523 32.2164 18.4189 32.1499 18.4875 32.0815C18.6277 31.9414 18.7677 31.8011 18.9075 31.6607C19.1217 31.4456 19.3368 31.2314 19.5519 31.0172C19.6882 30.8809 19.8244 30.7445 19.9605 30.608C20.0571 30.5119 20.0571 30.5119 20.1556 30.4139C20.2151 30.3539 20.2745 30.294 20.3358 30.2322C20.3882 30.1797 20.4406 30.1272 20.4945 30.0731C20.8006 29.7208 20.817 29.4131 20.8056 28.9588C20.7418 28.3923 20.1849 27.9311 19.7664 27.5782C18.8136 27.1106 18.2132 27.6891 17.5609 28.3436ZM20.783 31.6792C20.6863 31.7757 20.6863 31.7757 20.5877 31.8741C20.4522 32.0097 20.3172 32.1456 20.1825 32.2819C19.9767 32.4901 19.7694 32.6967 19.5618 32.9032C19.4301 33.0355 19.2984 33.1678 19.1668 33.3003C19.105 33.3618 19.0432 33.4233 18.9796 33.4867C18.5598 33.9138 18.242 34.301 18.2039 34.922C18.2809 35.5893 18.8084 36.0323 19.2977 36.4503C19.6061 36.5981 19.8925 36.6829 20.2352 36.6407C20.7877 36.4124 21.1466 36.0855 21.5624 35.662C21.6269 35.5975 21.6913 35.533 21.7577 35.4665C21.8931 35.3306 22.0282 35.1943 22.1629 35.0577C22.3689 34.8488 22.5761 34.6413 22.7836 34.4338C22.9153 34.3013 23.047 34.1687 23.1786 34.036C23.2713 33.9431 23.2713 33.9431 23.3658 33.8483C23.4519 33.7607 23.4519 33.7607 23.5397 33.6714C23.5901 33.6204 23.6404 33.5695 23.6923 33.517C23.9997 33.1626 24.1542 32.8183 24.1414 32.3438C23.9649 31.7259 23.4947 31.2188 22.9696 30.8595C22.063 30.3945 21.3912 31.0622 20.783 31.6792Z" fill="white"/>
</g>
<defs>
<clipPath id="clip0_1380_1701">
<rect width="40" height="40" fill="white"/>
</clipPath>
</defs>
</svg>
