<svg width="20" height="20" viewBox="0 0 20 20" fill="none" xmlns="http://www.w3.org/2000/svg">
<g clip-path="url(#clip0_1019_212)">
<path fill-rule="evenodd" clip-rule="evenodd" d="M7.93417 2.44716e-06C7.95604 2.44716e-06 7.97799 2.44716e-06 8 2.44716e-06H12.0658C12.9523 -4.75528e-05 13.7161 -8.75741e-05 14.3278 0.0821524C14.9833 0.170282 15.6117 0.369022 16.1213 0.878682C16.631 1.38835 16.8297 2.0167 16.9179 2.67221C17.0001 3.28387 17.0001 4.04769 17 4.93417V15.0658C17.0001 15.9523 17.0001 16.7161 16.9179 17.3278C16.8297 17.9833 16.631 18.6117 16.1213 19.1213C15.6117 19.631 14.9833 19.8297 14.3278 19.9179C13.7161 20.0001 12.9523 20.0001 12.0658 20H7.9342C7.0477 20.0001 6.28388 20.0001 5.67221 19.9179C5.0167 19.8297 4.38835 19.631 3.87868 19.1213C3.36902 18.6117 3.17028 17.9833 3.08215 17.3278C2.99991 16.7161 2.99995 15.9523 3 15.0658V5C3 4.97799 3 4.95604 3 4.93417C2.99995 4.04769 2.99991 3.28387 3.08215 2.67221C3.17028 2.0167 3.36902 1.38835 3.87868 0.878682C4.38835 0.369022 5.0167 0.170282 5.67221 0.0821524C6.28387 -8.75741e-05 7.04769 -4.75528e-05 7.93417 2.44716e-06ZM8.5 16C8.5 15.4477 8.9477 15 9.5 15H10.5C11.0523 15 11.5 15.4477 11.5 16C11.5 16.5523 11.0523 17 10.5 17H9.5C8.9477 17 8.5 16.5523 8.5 16Z" fill="white"/>
</g>
<defs>
<clipPath id="clip0_1019_212">
<rect width="20" height="20" fill="white"/>
</clipPath>
</defs>
</svg>
