<svg width="55" height="54" viewBox="0 0 55 54" fill="none" xmlns="http://www.w3.org/2000/svg">
<path d="M14.7827 46.401C16.7916 54.4227 24.6756 54.0374 33.9494 51.7259C43.2231 49.4005 50.3642 46.0295 48.3553 38.0079C46.3465 29.9862 37.1965 25.3493 27.9366 27.6747C18.6628 30 12.7738 38.3794 14.7827 46.4148V46.401Z" fill="#FF0099"/>
<path d="M39.9739 20.7676C40.9371 24.5927 44.8172 26.918 48.6422 25.9686C52.4673 25.0055 54.7926 21.1254 53.8433 17.3003C52.8801 13.4752 49 11.1499 45.1749 12.0993C41.3498 13.0624 39.0245 16.9425 39.9739 20.7676Z" fill="#FF0099"/>
<path d="M0.212185 30.7159C1.17533 34.5409 5.05545 36.8662 8.88053 35.9169C12.7056 34.9537 15.0309 31.0736 14.0815 27.2485C13.1184 23.4234 9.23827 21.0981 5.41319 22.0475C1.58812 23.0107 -0.737205 26.8908 0.212185 30.7159Z" fill="#FF0099"/>
<path d="M13.9841 12.1541C15.2912 17.3964 20.6023 20.5748 25.8446 19.2677C31.0869 17.9606 34.2653 12.6495 32.9581 7.4072C31.651 2.16492 26.3399 -1.01348 21.0976 0.293655C15.8553 1.60079 12.677 6.91186 13.9841 12.1541Z" fill="#FF0099"/>
</svg>
